<?xml version="1.0" encoding="UTF-8"?>
<svg version="1.1" xmlns="http://www.w3.org/2000/svg" width="389" height="500">
<path d="M0 0 C1.37454973 0.3559102 2.74949394 0.71030389 4.125 1.0625 C5.07375 1.371875 6.0225 1.68125 7 2 C7.33 2.66 7.66 3.32 8 4 C9.32148827 4.37756808 10.65835921 4.7018576 12 5 C13.6744239 5.6469365 15.34302621 6.30959426 17 7 C17 7.66 17 8.32 17 9 C17.61488281 9.12117188 18.22976562 9.24234375 18.86328125 9.3671875 C19.67152344 9.53476563 20.47976562 9.70234375 21.3125 9.875 C22.11300781 10.03742188 22.91351563 10.19984375 23.73828125 10.3671875 C26 11 26 11 29 13 C29.309375 13.639375 29.61875 14.27875 29.9375 14.9375 C31.53677398 18.04197301 33.93396942 19.46698471 37 21 C37 21.66 37 22.32 37 23 C37.7425 23.20625 38.485 23.4125 39.25 23.625 C42.82371889 25.41185945 44.06522496 27.56039993 46 31 C46 31.66 46 32.32 46 33 C46.99 33.33 47.98 33.66 49 34 C51.01956488 36.01956488 51.75024425 37.46968466 53 40 C54.23989737 41.98551132 55.49120109 43.96391798 56.75 45.9375 C72.34966556 71.05278449 77.96912955 100.70335611 71.3125 129.6875 C66.95291129 147.03733527 59.8096607 162.19052922 48.43359375 176.0625 C46.36671533 178.85588337 45.27408298 181.78126405 44 185 C43.34 185.33 42.68 185.66 42 186 C42 187.65 42 189.3 42 191 C41.34 191 40.68 191 40 191 C39.67 191.66 39.34 192.32 39 193 C33.68 200.6 33.68 200.6 29.375 201.625 C28.59125 201.74875 27.8075 201.8725 27 202 C26.34 202.66 25.68 203.32 25 204 C21.30769231 207 21.30769231 207 19 207 C1.92385257 211.65713112 -10.60215895 228.87476012 -20 243 C-20.33 243.66 -20.66 244.32 -21 245 C-23.32741989 245.37238718 -25.66235715 245.69836866 -28 246 C-30.36355684 246.58974629 -32.66932529 247.28652815 -35 248 C-35 248.66 -35 249.32 -35 250 C-40.75 251.125 -40.75 251.125 -43 250 C-43.33 250.66 -43.66 251.32 -44 252 C-44.680625 251.814375 -45.36125 251.62875 -46.0625 251.4375 C-49.0956608 250.83442267 -49.0956608 250.83442267 -52.5 251.5625 C-56.17734048 252.02216756 -57.75088797 251.62455601 -61 250 C-61.33 250 -61.66 250 -62 250 C-66.70588235 247.29411765 -66.70588235 247.29411765 -68 246 C-70.52596259 245.76346477 -73.03107207 245.57826308 -75.5625 245.4375 C-76.27341797 245.39431641 -76.98433594 245.35113281 -77.71679688 245.30664062 C-79.47761912 245.20028223 -81.2387832 245.09961154 -83 245 C-83.19916016 243.66195312 -83.19916016 243.66195312 -83.40234375 242.296875 C-83.57894531 241.12640625 -83.75554687 239.9559375 -83.9375 238.75 C-84.11152344 237.58984375 -84.28554687 236.4296875 -84.46484375 235.234375 C-84.92845086 232.15061748 -84.92845086 232.15061748 -85.56640625 229.765625 C-86 228 -86 228 -86 225 C-86.66 224.67 -87.32 224.34 -88 224 C-89.29128429 220.05018922 -90.25697027 216.08666352 -91 212 C-91.66 212 -92.32 212 -93 212 C-93.37125 211.030625 -93.7425 210.06125 -94.125 209.0625 C-97.10946042 202.1362994 -100.97698396 196.55795808 -107 192 C-107.42796875 191.24976563 -107.8559375 190.49953125 -108.296875 189.7265625 C-110.30305729 186.51483031 -112.81438794 184.17856317 -115.5625 181.625 C-120.27709114 177.09441411 -124.14904809 172.3320245 -127.75 166.875 C-128.17998291 166.22354004 -128.60996582 165.57208008 -129.05297852 164.90087891 C-132 160.29551076 -132 160.29551076 -132 158 C-132.66 158 -133.32 158 -134 158 C-137 154.53846154 -137 154.53846154 -137 152 C-137.474375 151.0925 -137.94875 150.185 -138.4375 149.25 C-139.96686294 146.06892508 -140.58552697 143.48157344 -141 140 C-141.99 139.67 -142.98 139.34 -144 139 C-143.80535156 138.33871094 -143.61070312 137.67742187 -143.41015625 136.99609375 C-142.88348123 133.14885813 -143.66327002 129.81342528 -144.4375 126.0625 C-148.28752715 105.13853356 -145.52313223 85.32982716 -140 65 C-139.34 65 -138.68 65 -138 65 C-137.83371094 63.93652344 -137.83371094 63.93652344 -137.6640625 62.8515625 C-135.55581918 53.79851764 -129.60289003 44.33574262 -124 37 C-123.34 37 -122.68 37 -122 37 C-121.78988281 36.46761719 -121.57976562 35.93523437 -121.36328125 35.38671875 C-110.86844999 17.01324626 -86.35423544 5.06892494 -66.9765625 -0.96875 C-45.13173933 -6.92943949 -21.62664124 -6.75832539 0 0 Z " fill="#68EAA9" transform="translate(212,84)"/>
<path d="M0 0 C22.23788488 18.77305862 34.58396602 42.98596141 37.05859375 72.01953125 C38.74174739 97.37507717 31.10140245 122.65467914 15.015625 142.37890625 C12.83878372 144.83723562 10.60341909 147.21054399 8.3125 149.5625 C7.59707031 150.32820312 6.88164062 151.09390625 6.14453125 151.8828125 C2.66911383 155.521242 0.14322463 157.89673288 -4.6875 159.5625 C-5.90869957 147.33354316 -5.90869957 147.33354316 -3.1171875 143.28515625 C-1.04832288 141.55061386 1.04555835 140.02766875 3.3125 138.5625 C5.92525661 136.8243762 7.83371705 135.36635728 9.3125 132.5625 C9.59361598 129.34212075 9.67707752 126.19116121 9.70532227 122.96313477 C9.89665578 118.01614824 9.89665578 118.01614824 12.03125 115.6875 C14.1875 114.5 14.1875 114.5 16.3671875 113.5078125 C18.59947759 112.60765007 18.59947759 112.60765007 20.3125 109.875 C22.0587199 104.09064658 22.51307474 98.22555928 19.75 92.6875 C16.3466439 88.32422296 13.30670731 86.08025852 7.91796875 85.1484375 C2.37120517 84.82466328 -1.54802036 85.81853901 -6.05859375 89.08984375 C-9.26052741 91.98463749 -10.44014109 94.67130021 -10.99609375 98.921875 C-11.30114953 105.02299053 -10.38821883 108.69313312 -6.6875 113.5625 C-5.615 114.14 -4.5425 114.7175 -3.4375 115.3125 C-0.33359403 117.85205943 0.02327526 118.58428991 0.5625 122.4375 C0.44257851 125.596811 0.13803926 127.68308957 -2.07177734 130.03710938 C-3.90403642 131.61103292 -5.76108633 133.15121836 -7.625 134.6875 C-12.69307116 138.94988099 -15.06355678 142.19382083 -15.69921875 148.91015625 C-15.91410928 154.33410201 -15.75522483 159.73588921 -15.36376953 165.14916992 C-15.6875 167.5625 -15.6875 167.5625 -17.45825195 169.29150391 C-19.44991644 170.42704276 -21.32848355 171.36626798 -23.47265625 172.16796875 C-24.16810547 172.42900391 -24.86355469 172.69003906 -25.58007812 172.95898438 C-26.29615234 173.22001953 -27.01222656 173.48105469 -27.75 173.75 C-28.82991211 174.15895508 -28.82991211 174.15895508 -29.93164062 174.57617188 C-32.97408902 175.7033185 -35.41738458 176.5625 -38.6875 176.5625 C-39.04813256 170.07619576 -39.28986755 163.59253932 -39.45654297 157.09838867 C-39.52613561 154.89916502 -39.62106042 152.7005688 -39.74365234 150.50366211 C-40.72938542 132.35871842 -36.67739858 122.97008201 -24.6875 109.5625 C-19.89117173 104.14119425 -17.81094322 100.5533563 -18.12890625 93.265625 C-18.13484505 91.71484405 -18.14070206 90.16406279 -18.14648438 88.61328125 C-18.19259291 86.2013362 -18.25058483 83.78998746 -18.31323242 81.37841797 C-18.36388075 79.02766976 -18.37284673 76.6793448 -18.37890625 74.328125 C-18.4119838 73.6082843 -18.44506134 72.8884436 -18.47914124 72.14678955 C-18.47875977 70.10253906 -18.47875977 70.10253906 -17.6875 66.5625 C-15.49295184 64.74338554 -13.30090479 63.80069841 -10.6875 62.5625 C-7.00893488 57.84639088 -5.97410317 54.03839043 -6.23828125 48.0625 C-7.22502654 42.57104797 -9.9576769 38.84981021 -14.375 35.5625 C-20.15935342 33.8162801 -26.02444072 33.36192526 -31.5625 36.125 C-35.92813955 39.53019885 -38.22125906 42.57279007 -39.06640625 47.9921875 C-39.35112037 54.03547432 -38.34705269 57.74729909 -34.6875 62.5625 C-33.67002686 63.14757324 -32.65255371 63.73264648 -31.60424805 64.33544922 C-28.6875 66.5625 -28.6875 66.5625 -27.80004883 69.66845703 C-27.62918313 73.68071628 -27.48201379 77.67155694 -27.5 81.6875 C-27.49454666 82.77046356 -27.49454666 82.77046356 -27.48898315 83.87530518 C-27.5295976 96.84990457 -30.84915103 105.0561634 -39.80192566 114.50643921 C-47.10236535 122.46695685 -49.72942655 128.28657337 -49.58984375 139.1328125 C-49.60213516 140.29505341 -49.61442657 141.45729431 -49.62709045 142.65475464 C-49.65864703 146.3329914 -49.64259143 150.00920341 -49.625 153.6875 C-49.63811898 156.195331 -49.6543638 158.70314772 -49.67382812 161.2109375 C-49.71453376 167.32855314 -49.71256988 173.44481466 -49.6875 179.5625 C-54.9675 179.8925 -60.2475 180.2225 -65.6875 180.5625 C-65.96003164 172.16433262 -66.17953041 163.7696723 -66.30924606 155.3682518 C-66.37154618 151.46581899 -66.45582428 147.56659893 -66.59277344 143.66601562 C-67.57716078 114.9097682 -67.57716078 114.9097682 -61.38995361 108.11480713 C-58.96382449 105.99452285 -56.39742652 104.30270272 -53.6875 102.5625 C-52.49594477 98.98783432 -52.55847636 95.752158 -52.57739258 92.03344727 C-52.57684997 90.44910175 -52.57626298 88.86475625 -52.57563782 87.28041077 C-52.57706598 86.44111589 -52.57849415 85.60182102 -52.57996559 84.73709297 C-52.58348339 80.29537005 -52.55769255 75.85377414 -52.53710938 71.41210938 C-52.51275192 65.75859966 -52.49709752 60.10545921 -52.51245117 54.4519043 C-52.52409629 49.8834406 -52.50676345 45.31589254 -52.47000694 40.74757195 C-52.46137964 39.00646877 -52.46349005 37.26527821 -52.476511 35.52420235 C-52.49336659 33.08876113 -52.4732563 30.65621813 -52.44458008 28.22094727 C-52.45837204 27.50133316 -52.472164 26.78171906 -52.4863739 26.04029846 C-52.44026184 24.0224762 -52.44026184 24.0224762 -51.6875 20.5625 C-48.78862 18.2440033 -48.78862 18.2440033 -45.6875 16.5625 C-42.25832928 12.86260527 -41.38780251 9.9832651 -41.1875 5.0625 C-41.38101307 0.14459898 -42.31744089 -2.70311017 -45.6875 -6.4375 C-50.2101559 -10.51892118 -53.47896353 -11.76114536 -59.6328125 -11.6484375 C-64.36541884 -11.16258058 -67.46790809 -8.92007414 -70.5 -5.4375 C-74.02955652 -0.59696534 -74.3660529 3.74633228 -73.6875 9.5625 C-72.78452152 12.30407321 -71.56342662 14.37383975 -69.6875 16.5625 C-68.50502686 17.10575928 -67.32255371 17.64901855 -66.10424805 18.20874023 C-63.2004162 20.24901595 -62.72803215 21.36866067 -61.98892212 24.90335083 C-61.57835413 29.41959868 -61.57943645 33.94118641 -61.58203125 38.47265625 C-61.56459921 40.16313557 -61.54583506 41.85360162 -61.52580261 43.54405212 C-61.49293196 47.08922073 -61.48792659 50.63318009 -61.50024414 54.1784668 C-61.51208951 58.69388212 -61.43759528 63.20314091 -61.33923817 67.71732426 C-61.27596656 71.21208298 -61.26861258 74.70539446 -61.27640343 78.20065117 C-61.27187437 79.86275926 -61.24844743 81.52493896 -61.20478249 83.18647957 C-60.9013289 96.12758168 -60.9013289 96.12758168 -63.9109993 100.23038101 C-65.95006386 102.32384325 -68.13495229 104.19302229 -70.36644077 106.07669544 C-73.81936807 109.1619822 -75.44966498 111.40885227 -76.03300571 116.21997547 C-76.22191771 119.76667032 -76.17943784 123.27939286 -76.078125 126.828125 C-76.07818147 128.35798027 -76.08354694 129.88784356 -76.09393311 131.41766357 C-76.10699813 135.40420333 -76.04898613 139.3865053 -75.97503662 143.37225342 C-75.91223287 147.45510979 -75.9181806 151.53783933 -75.91796875 155.62109375 C-75.90760872 163.60299123 -75.82199977 171.58173247 -75.6875 179.5625 C-77.9975 179.2325 -80.3075 178.9025 -82.6875 178.5625 C-82.6844838 177.42768188 -82.68146759 176.29286377 -82.67835999 175.12365723 C-82.65445321 164.41257221 -82.66734223 153.70207442 -82.71596622 142.99106598 C-82.73978819 137.48473889 -82.75078721 131.9790164 -82.73217773 126.47265625 C-82.71468436 121.15545288 -82.73127106 115.83933407 -82.77117729 110.52226257 C-82.78044901 108.49698251 -82.77758046 106.47160819 -82.76219368 104.44636536 C-82.13777365 92.14541042 -82.13777365 92.14541042 -87.06445312 81.41723633 C-88.85322024 79.82715122 -88.85322024 79.82715122 -90.6875 78.5625 C-91.63496094 77.71042969 -92.58242188 76.85835938 -93.55859375 75.98046875 C-94.40550781 75.24441406 -95.25242187 74.50835937 -96.125 73.75 C-99.68355892 70.2132393 -101.44820645 67.87824244 -101.8125 62.8125 C-101.52156954 59.62121664 -101.23106261 58.11596808 -98.97265625 55.81640625 C-97.56208125 54.84712846 -96.12726603 53.91230646 -94.671875 53.01171875 C-91.33116907 50.57195123 -90.33271037 47.55380134 -89.6875 43.5625 C-89.45532916 37.94818688 -91.0788456 33.8538728 -94.6875 29.5625 C-99.24921252 25.33457132 -103.15196255 25.01976775 -109.125 25.22265625 C-112.22599807 25.63391667 -114.22377183 26.65509755 -116.6875 28.5625 C-117.3475 28.5625 -118.0075 28.5625 -118.6875 28.5625 C-119.37370031 29.88588632 -120.03536461 31.22199948 -120.6875 32.5625 C-121.05875 33.305 -121.43 34.0475 -121.8125 34.8125 C-123.39245381 39.77806913 -123.26691883 43.92081331 -121.5625 48.75 C-118.97285548 52.63446678 -115.91435959 55.44907021 -111.6875 57.5625 C-111.83053665 59.72935309 -111.97707551 61.8959751 -112.125 64.0625 C-112.14025484 67.11796263 -111.83613485 69.71479659 -110.6875 72.5625 C-108.99777189 74.20820302 -108.99777189 74.20820302 -106.86572266 75.56225586 C-100.76850599 79.66594693 -95.04665713 84.21934655 -93.15091324 91.67194366 C-91.03090129 104.42017623 -92.02814798 117.7450812 -92.52020264 130.59613037 C-92.69576624 135.67029693 -92.77209438 140.74592194 -92.85742188 145.82226562 C-93.0384316 155.73949616 -93.32758473 165.65025964 -93.6875 175.5625 C-98.46742549 174.85577482 -102.19281474 173.59566538 -106.5625 171.5 C-107.71492188 170.95214844 -108.86734375 170.40429688 -110.0546875 169.83984375 C-110.92351562 169.41832031 -111.79234375 168.99679687 -112.6875 168.5625 C-112.68892502 167.98034225 -112.69035004 167.39818451 -112.69181824 166.79838562 C-112.71148182 160.74735196 -112.7656826 154.69733162 -112.84008789 148.64672852 C-112.86330667 146.38768785 -112.87767265 144.12853834 -112.88305664 141.86938477 C-112.89231765 138.62446961 -112.933247 135.38127572 -112.98046875 132.13671875 C-112.9765361 131.12413498 -112.97260345 130.11155121 -112.96855164 129.06828308 C-113.02279208 126.47059521 -113.11433741 124.09666632 -113.6875 121.5625 C-115.87527645 119.3593518 -115.87527645 119.3593518 -118.6875 118.5625 C-119.85925781 118.03269531 -121.03101563 117.50289062 -122.23828125 116.95703125 C-123.49060526 116.42594096 -124.74454466 115.89864512 -126 115.375 C-126.64517578 115.10236328 -127.29035156 114.82972656 -127.95507812 114.54882812 C-129.53114549 113.88337746 -131.1091291 113.22246835 -132.6875 112.5625 C-133.15615702 107.81083852 -133.39269172 103.29735867 -132.6875 98.5625 C-130.85980394 96.35989192 -129.12980524 95.27292233 -126.66796875 93.84375 C-123.43434362 91.7517795 -122.69881063 89.16529411 -121.6875 85.5625 C-120.94478644 79.72689347 -122.22158417 75.25168024 -125.6875 70.5625 C-129.75763817 67.0565394 -134.33604932 65.6563851 -139.6875 65.5625 C-142.47122117 66.32918106 -145.04823491 67.40351837 -147.6875 68.5625 C-149.1725 69.0575 -149.1725 69.0575 -150.6875 69.5625 C-151.84672128 71.29392854 -151.84672128 71.29392854 -152.6875 73.5625 C-153.2753125 74.8928125 -153.2753125 74.8928125 -153.875 76.25 C-155.10749936 81.2748051 -155.02079673 85.89075868 -152.67578125 90.58984375 C-150.68959758 93.55345534 -149.41951461 95.25622683 -146.0546875 96.6640625 C-143.6875 98.5625 -143.6875 98.5625 -143.24023438 100.53076172 C-143.07655824 103.0506491 -143.03998805 105.5374101 -143.0625 108.0625 C-143.0625 109.78129932 -143.05 111.50015594 -143.0234375 113.21875 C-143.02907715 113.97994141 -143.0347168 114.74113281 -143.04052734 115.52539062 C-142.58720387 118.14124891 -141.76032251 118.94507933 -139.6875 120.5625 C-137.1517232 121.687646 -134.65521357 122.71766917 -132.0625 123.6875 C-124.79222973 126.45777027 -124.79222973 126.45777027 -123.6875 127.5625 C-123.59906207 130.01080426 -123.57221248 132.43070599 -123.58984375 134.87890625 C-123.5912587 135.60996078 -123.59267365 136.34101532 -123.59413147 137.09422302 C-123.59974592 139.43785632 -123.61230078 141.78139539 -123.625 144.125 C-123.63001314 145.71028508 -123.63457637 147.29557166 -123.63867188 148.88085938 C-123.64972003 152.7747761 -123.66699428 156.66862205 -123.6875 160.5625 C-145.59903378 147.68299322 -157.61722548 123.9597691 -163.890625 100.203125 C-169.58979678 74.16573237 -164.31186525 46.97462031 -150.546875 24.34765625 C-147.54016215 19.8439036 -144.17059875 15.70194284 -140.6875 11.5625 C-139.924375 10.551875 -139.16125 9.54125 -138.375 8.5 C-102.40706637 -30.81378792 -40.421738 -32.23785671 0 0 Z " fill="#54F4F9" transform="translate(351.6875,306.4375)"/>
<path d="M0 0 C18.48 0 36.96 0 56 0 C52.625 10.125 52.625 10.125 51 14 C50.44014404 14.01458252 49.88028809 14.02916504 49.3034668 14.04418945 C46.76411863 14.11871352 44.22607922 14.21535581 41.6875 14.3125 C40.80642578 14.33505859 39.92535156 14.35761719 39.01757812 14.38085938 C37.74624023 14.4340332 37.74624023 14.4340332 36.44921875 14.48828125 C35.66893311 14.51446533 34.88864746 14.54064941 34.0847168 14.56762695 C31.50488133 15.10268827 30.55776856 15.89919652 29 18 C29.07533247 20.6272914 29.07533247 20.6272914 30 23 C33.171738 24.585869 36.63513822 24.37866445 40.125 24.5625 C40.87910156 24.60568359 41.63320312 24.64886719 42.41015625 24.69335938 C44.27321888 24.7994832 46.13658524 24.90025001 48 25 C47.85970581 27.1462026 47.71261836 29.29196218 47.5625 31.4375 C47.48128906 32.63246094 47.40007812 33.82742188 47.31640625 35.05859375 C47 38 47 38 46 39 C44.55710213 39.09295815 43.10970215 39.11746513 41.66381836 39.11352539 C40.28249977 39.11341209 40.28249977 39.11341209 38.87327576 39.11329651 C37.87224319 39.10813522 36.87121063 39.10297394 35.83984375 39.09765625 C34.82024063 39.0962413 33.80063751 39.09482635 32.75013733 39.09336853 C29.47922893 39.08775097 26.20838787 39.0751955 22.9375 39.0625 C20.72591244 39.05748726 18.51432382 39.05292396 16.30273438 39.04882812 C10.86846346 39.03777583 5.43424316 39.02049944 0 39 C0 34.38 0 29.76 0 25 C1.19238281 24.96261719 2.38476562 24.92523438 3.61328125 24.88671875 C5.179719 24.82105968 6.74612384 24.75461232 8.3125 24.6875 C9.09818359 24.66494141 9.88386719 24.64238281 10.69335938 24.61914062 C11.8293457 24.5659668 11.8293457 24.5659668 12.98828125 24.51171875 C13.68477783 24.48553467 14.38127441 24.45935059 15.09887695 24.43237305 C17.54680498 23.87563996 18.4957073 22.98386204 20 21 C19.92466753 18.3727086 19.92466753 18.3727086 19 16 C15.70039859 14.3501993 12.00872116 14.61741639 8.375 14.4375 C7.57320312 14.39431641 6.77140625 14.35113281 5.9453125 14.30664062 C3.9637489 14.20048543 1.98189729 14.09973145 0 14 C0 9.38 0 4.76 0 0 Z " fill="#ED63FE" transform="translate(129,339)"/>
<path d="M0 0 C0.33 0 0.66 0 1 0 C1.01458252 0.55985596 1.02916504 1.11971191 1.04418945 1.6965332 C1.11871352 4.23588137 1.21535581 6.77392078 1.3125 9.3125 C1.33505859 10.19357422 1.35761719 11.07464844 1.38085938 11.98242188 C1.41630859 12.82998047 1.45175781 13.67753906 1.48828125 14.55078125 C1.51446533 15.33106689 1.54064941 16.11135254 1.56762695 16.9152832 C2.10867649 19.52399125 2.9183619 20.37325954 5 22 C7.5357768 23.125146 10.03228643 24.15516917 12.625 25.125 C19.89527027 27.89527027 19.89527027 27.89527027 21 29 C21.08843793 31.44830426 21.11528752 33.86820599 21.09765625 36.31640625 C21.0962413 37.04746078 21.09482635 37.77851532 21.09336853 38.53172302 C21.08775408 40.87535632 21.07519922 43.21889539 21.0625 45.5625 C21.05748686 47.14778508 21.05292363 48.73307166 21.04882812 50.31835938 C21.03777997 54.2122761 21.02050572 58.10612205 21 62 C8.53474291 54.67297466 -3.02533886 42.27413845 -9 29 C-8 27 -8 27 -6 25 C-5.66073053 22.66752239 -5.32759934 20.33414529 -5 18 C-4.34 17.01 -3.68 16.02 -3 15 C-2.34 15 -1.68 15 -1 15 C-0.67 10.05 -0.34 5.1 0 0 Z " fill="#AFB5FE" transform="translate(207,405)"/>
<path d="M0 0 C18.48 0 36.96 0 56 0 C54.43297876 4.70106371 52.84037311 9.39906723 51 14 C41.1 14.495 41.1 14.495 31 15 C30.34 13.35 29.68 11.7 29 10 C27.7625 10.185625 26.525 10.37125 25.25 10.5625 C22.14578849 10.96763519 20.02597508 10.78451206 17 10 C16.01 10.66 15.02 11.32 14 12 C14.66 12.66 15.32 13.32 16 14 C10.72 14 5.44 14 0 14 C0 9.38 0 4.76 0 0 Z " fill="#C6A1F8" transform="translate(129,339)"/>
<path d="M0 0 C15.18 0 30.36 0 46 0 C46.66 4.95 47.32 9.9 48 15 C42.55571763 15.09916726 37.11196552 15.17160909 31.66699219 15.21972656 C29.81631304 15.23979339 27.96569691 15.26705345 26.11523438 15.30175781 C23.44906023 15.35049433 20.78372713 15.37301787 18.1171875 15.390625 C17.29507782 15.41127014 16.47296814 15.43191528 15.62594604 15.45318604 C10.27331897 15.45525837 7.22904006 14.58459175 3 11 C0.33639623 6.82702076 0 5.09382475 0 0 Z " fill="#F160FF" transform="translate(129,389)"/>
<path d="M0 0 C2.77475526 1.73358671 4.96041565 3.95490504 7.24609375 6.28125 C7.90207047 6.92815796 8.55804718 7.57506592 9.23390198 8.24157715 C10.61311539 9.61166419 11.98349239 10.99069678 13.34545898 12.37792969 C15.42944862 14.49183305 17.55031393 16.56273028 19.67773438 18.6328125 C21.01543791 19.97154747 22.35080674 21.31262027 23.68359375 22.65625 C24.31784775 23.2711731 24.95210175 23.88609619 25.60557556 24.51965332 C28.65705684 27.68722024 30.39052579 29.83237091 30.51977539 34.33398438 C30 38 30 38 28 40 C24.14439214 40.54665618 21.51876222 40.91223293 18.12817383 38.8757019 C16.19233137 37.23371389 14.42323651 35.50612776 12.65625 33.68359375 C12.00168823 33.03431412 11.34712646 32.38503448 10.67272949 31.71607971 C9.29840774 30.34281681 7.93400147 28.95956731 6.57910156 27.56713867 C4.50441882 25.44202623 2.39264502 23.3599063 0.2734375 21.27929688 C-1.05969759 19.93728156 -2.39050987 18.59295397 -3.71875 17.24609375 C-4.34986694 16.62600937 -4.98098389 16.00592499 -5.63122559 15.36705017 C-8.71149612 12.15123932 -9.91340198 10.72295525 -10.45898438 6.16821289 C-10 3 -10 3 -8.9375 1.0625 C-5.77242238 -0.67318773 -3.56558466 -0.42709775 0 0 Z " fill="#D4FEF4" transform="translate(55,45)"/>
<path d="M0 0 C2 1.625 2 1.625 3 4 C2.91632611 10.17290197 -0.28169309 13.04133847 -4.4140625 17.1484375 C-5.06192719 17.80582916 -5.70979187 18.46322083 -6.37728882 19.14053345 C-7.74795505 20.52333985 -9.12512828 21.89972274 -10.50830078 23.27001953 C-12.61823478 25.36827223 -14.69418718 27.49650129 -16.76953125 29.62890625 C-18.10743115 30.97069103 -19.44721475 32.31060076 -20.7890625 33.6484375 C-21.40600983 34.28582855 -22.02295715 34.9232196 -22.65859985 35.57992554 C-25.84874739 38.68664168 -27.27878268 39.90601622 -31.82568359 40.49853516 C-35 40 -35 40 -37 38.375 C-38.40424306 35.03992273 -38.01785184 33.48483992 -37 30 C-35.11488154 27.36410584 -32.88068309 25.1322752 -30.5859375 22.8515625 C-29.93807281 22.19417084 -29.29020813 21.53677917 -28.62271118 20.85946655 C-27.25204495 19.47666015 -25.87487172 18.10027726 -24.49169922 16.72998047 C-22.38176522 14.63172777 -20.30581282 12.50349871 -18.23046875 10.37109375 C-16.89256885 9.02930897 -15.55278525 7.68939924 -14.2109375 6.3515625 C-13.59399017 5.71417145 -12.97704285 5.0767804 -12.34140015 4.42007446 C-8.31653261 0.50046862 -5.86857615 -0.92167609 0 0 Z " fill="#B5FDC6" transform="translate(304,45)"/>
<path d="M0 0 C0.8037355 -0.00428513 1.60747101 -0.00857025 2.43556213 -0.01298523 C4.13256897 -0.01871867 5.82960037 -0.01923605 7.52661133 -0.01489258 C10.11647669 -0.01173391 12.70519776 -0.03519844 15.29492188 -0.06054688 C16.94661315 -0.06282018 18.59830748 -0.06352322 20.25 -0.0625 C21.40646278 -0.07631462 21.40646278 -0.07631462 22.58628845 -0.09040833 C27.11169323 -0.05166111 30.14241642 0.40410725 33.69140625 3.30078125 C34.78366694 6.50929702 35.10760027 8.30419519 33.79101562 11.45678711 C30.3484678 14.48022475 26.52679974 13.89117845 22.09765625 13.8671875 C21.15458618 13.87338608 20.21151611 13.87958466 19.23986816 13.88597107 C17.24602288 13.89307486 15.25211835 13.88988549 13.25830078 13.87719727 C10.20234405 13.86333088 7.14944791 13.89739373 4.09375 13.93554688 C2.15755133 13.93649803 0.22134882 13.93463943 -1.71484375 13.9296875 C-3.08835999 13.94957481 -3.08835999 13.94957481 -4.48962402 13.96986389 C-6.86809721 13.93483419 -8.99605696 13.85747446 -11.30859375 13.30078125 C-13.44335938 10.96069336 -13.44335938 10.96069336 -14.30859375 8.30078125 C-13.75382885 5.15711347 -13.3782597 3.08877238 -10.73803711 1.14379883 C-7.19465337 -0.0857564 -3.7072129 -0.004371 0 0 Z " fill="#D9F8DC" transform="translate(14.30859375,168.69921875)"/>
<path d="M0 0 C0.82971817 -0.0033284 1.65943634 -0.0066568 2.51429749 -0.01008606 C4.26855922 -0.01514686 6.02283058 -0.01749465 7.77709961 -0.01733398 C10.45898309 -0.0195201 13.14045494 -0.03768355 15.82226562 -0.05664062 C17.52734234 -0.0595748 19.23242102 -0.06155943 20.9375 -0.0625 C21.73864731 -0.06968552 22.53979462 -0.07687103 23.36521912 -0.08427429 C30.48227124 -0.05511015 30.48227124 -0.05511015 33.53515625 2.16796875 C34.93450638 4.96666902 34.7878103 7.07295667 34.53515625 10.16796875 C33.0075016 12.19513174 32.11264366 13.05428001 29.60009766 13.54891968 C28.5044751 13.55249985 28.5044751 13.55249985 27.38671875 13.55615234 C26.14027588 13.57033707 26.14027588 13.57033707 24.86865234 13.58480835 C23.97484863 13.57873566 23.08104492 13.57266296 22.16015625 13.56640625 C20.77884521 13.57071152 20.77884521 13.57071152 19.36962891 13.57510376 C17.42284531 13.57714506 15.47604123 13.57161058 13.52929688 13.55908203 C10.54640926 13.54302931 7.56487664 13.55892847 4.58203125 13.578125 C2.69140325 13.57614258 0.8007761 13.57229893 -1.08984375 13.56640625 C-1.98364746 13.57247894 -2.87745117 13.57855164 -3.79833984 13.58480835 C-4.62930176 13.57535187 -5.46026367 13.56589539 -6.31640625 13.55615234 C-7.04682129 13.55376556 -7.77723633 13.55137878 -8.52978516 13.54891968 C-11.04066617 13.0546078 -11.93332254 12.18921627 -13.46484375 10.16796875 C-13.88962961 6.0900245 -13.77766962 4.63720756 -11.46484375 1.16796875 C-7.62783864 -0.11103295 -3.99887224 0.00554058 0 0 Z " fill="#9AFDD7" transform="translate(316.46484375,168.83203125)"/>
<path d="M0 0 C1.52270696 1.52270696 1.14921945 2.88912267 1.17700195 5.01318359 C1.18983719 5.86431732 1.20267242 6.71545105 1.21589661 7.59237671 C1.22328354 8.51837677 1.23067047 9.44437683 1.23828125 10.3984375 C1.246353 11.34433746 1.25442474 12.29023743 1.26274109 13.26480103 C1.27659857 15.27059079 1.28731324 17.2764043 1.29516602 19.28222656 C1.31238942 22.35527026 1.35626163 25.4272414 1.40039062 28.5 C1.41051606 30.44530456 1.41903263 32.39061829 1.42578125 34.3359375 C1.44328934 35.2578891 1.46079742 36.1798407 1.47883606 37.12973022 C1.45719702 43.47179451 1.45719702 43.47179451 -0.83129883 46.11572266 C-3.8886827 47.36235604 -5.86647468 46.8855615 -9 46 C-11.37716833 43.62283167 -11.26052545 43.10846888 -11.30639648 39.87329102 C-11.33037758 38.59670372 -11.33037758 38.59670372 -11.35484314 37.29432678 C-11.36020584 36.37348801 -11.36556854 35.45264923 -11.37109375 34.50390625 C-11.38012222 33.55942123 -11.3891507 32.61493622 -11.39845276 31.64183044 C-11.4129757 29.64203065 -11.42184705 27.64218311 -11.42553711 25.64233398 C-11.43744056 22.57780218 -11.48661159 19.51527877 -11.53710938 16.45117188 C-11.54657232 14.51042652 -11.55380797 12.56966877 -11.55859375 10.62890625 C-11.57812607 9.71009171 -11.59765839 8.79127716 -11.61778259 7.84461975 C-11.60080876 5.45898814 -11.54028441 3.32356528 -11 1 C-7.05081524 -2.63907183 -4.73876745 -2.1539852 0 0 Z " fill="#CEFDD2" transform="translate(185,2)"/>
<path d="M0 0 C0.99 0 1.98 0 3 0 C3.33 1.98 3.66 3.96 4 6 C4.66 5.34 5.32 4.68 6 4 C8.6015625 3.8046875 8.6015625 3.8046875 11.625 3.875 C13.12933594 3.90207031 13.12933594 3.90207031 14.6640625 3.9296875 C15.43492187 3.95289063 16.20578125 3.97609375 17 4 C17 7.11257569 16.82638376 9.10765685 16 12 C7.42857143 13.42857143 7.42857143 13.42857143 4 11 C3.67 11.33 3.34 11.66 3 12 C1.39735886 12.07298002 -0.20833732 12.08363831 -1.8125 12.0625 C-2.68519531 12.05347656 -3.55789062 12.04445313 -4.45703125 12.03515625 C-5.29621094 12.02355469 -6.13539063 12.01195312 -7 12 C-8.32 12 -9.64 12 -11 12 C-12.32 12 -13.64 12 -15 12 C-15.33 8.7 -15.66 5.4 -16 2 C-14.68 2 -13.36 2 -12 2 C-12 2.66 -12 3.32 -12 4 C-10.7625 4 -9.525 4 -8.25 4 C-5.5 4 -2.75 4 0 4 C0 2.68 0 1.36 0 0 Z " fill="#FB91FF" transform="translate(159,413)"/>
<path d="M0 0 C3.90911341 0.78182268 6.79196298 1.03120555 10.75 0.4375 C14 0 14 0 17 2 C17.33 1.34 17.66 0.68 18 0 C22.875 3.75 22.875 3.75 24 6 C26.58605332 6.4683265 26.58605332 6.4683265 29.5625 6.625 C30.57441406 6.69976562 31.58632812 6.77453125 32.62890625 6.8515625 C33.80259766 6.92503906 33.80259766 6.92503906 35 7 C35 7.33 35 7.66 35 8 C25.1 8.495 25.1 8.495 15 9 C14.34 7.35 13.68 5.7 13 4 C11.7625 4.185625 10.525 4.37125 9.25 4.5625 C6.14578849 4.96763519 4.02597508 4.78451206 1 4 C0.01 4.66 -0.98 5.32 -2 6 C-1.34 6.66 -0.68 7.32 0 8 C-4.95 8 -9.9 8 -15 8 C-15 5.69 -15 3.38 -15 1 C-9.2685742 -1.36898933 -5.91677623 -2.57251141 0 0 Z " fill="#DE8EFB" transform="translate(145,345)"/>
<path d="M0 0 C0.33 0 0.66 0 1 0 C1.33 18.48 1.66 36.96 2 56 C6.62 56 11.24 56 16 56 C16 58.97 16 61.94 16 65 C8.08 65.495 8.08 65.495 0 66 C0 44.22 0 22.44 0 0 Z " fill="#B5FFFE" transform="translate(286,421)"/>
<path d="M0 0 C1.32 0 2.64 0 4 0 C4 1.32 4 2.64 4 4 C5.32 4.33 6.64 4.66 8 5 C9.125 9.75 9.125 9.75 8 12 C7.01 12 6.02 12 5 12 C5 11.34 5 10.68 5 10 C4.34 10 3.68 10 3 10 C3 10.66 3 11.32 3 12 C-1 12 -1 12 -2.9375 11.4375 C-5.52824823 10.88794735 -7.4549151 11.36372878 -10 12 C-10.33 11.34 -10.66 10.68 -11 10 C-11.66 10.66 -12.32 11.32 -13 12 C-13.99 12 -14.98 12 -16 12 C-16 9.69 -16 7.38 -16 5 C-16.99 5 -17.98 5 -19 5 C-19 4.01 -19 3.02 -19 2 C-15.7 2 -12.4 2 -9 2 C-9 2.66 -9 3.32 -9 4 C-4.545 3.505 -4.545 3.505 0 3 C0 2.01 0 1.02 0 0 Z M-13 4 C-12.67 5.32 -12.34 6.64 -12 8 C-12 7.34 -12 6.68 -12 6 C-11.01 5.67 -10.02 5.34 -9 5 C-10.32 4.67 -11.64 4.34 -13 4 Z M0 6 C-0.99 6.66 -1.98 7.32 -3 8 C-1.68 8 -0.36 8 1 8 C0.67 7.34 0.34 6.68 0 6 Z " fill="#FCA0FF" transform="translate(132,413)"/>
<path d="M0 0 C18.48 0 36.96 0 56 0 C55.67 0.66 55.34 1.32 55 2 C37.18 1.67 19.36 1.34 1 1 C1 1.66 1 2.32 1 3 C1.66 2.67 2.32 2.34 3 2 C4.8863912 1.915085 6.77578515 1.892807 8.6640625 1.90234375 C9.78554687 1.90556641 10.90703125 1.90878906 12.0625 1.91210938 C13.238125 1.92048828 14.41375 1.92886719 15.625 1.9375 C16.80835938 1.94201172 17.99171875 1.94652344 19.2109375 1.95117188 C22.14067507 1.96298533 25.07031272 1.97945742 28 2 C28.33 3.32 28.66 4.64 29 6 C24.55815022 8.96123319 20.16171602 8.27596375 15.0625 7.625 C14.381875 7.41875 13.70125 7.2125 13 7 C12.67 6.34 12.34 5.68 12 5 C6.44946714 5.74359673 6.44946714 5.74359673 1 7 C1 9.31 1 11.62 1 14 C0.67 14 0.34 14 0 14 C0 9.38 0 4.76 0 0 Z " fill="#D9C2F6" transform="translate(129,339)"/>
<path d="M0 0 C12.87 0 25.74 0 39 0 C38.67 0.66 38.34 1.32 38 2 C35.4375 2.625 35.4375 2.625 33 3 C33 3.66 33 4.32 33 5 C27.25 6.125 27.25 6.125 25 5 C24.67 5.66 24.34 6.32 24 7 C23.319375 6.814375 22.63875 6.62875 21.9375 6.4375 C18.9043392 5.83442267 18.9043392 5.83442267 15.5 6.5625 C11.82265952 7.02216756 10.24911203 6.62455601 7 5 C6.67 5 6.34 5 6 5 C1.17241379 2.34482759 1.17241379 2.34482759 0 0 Z " fill="#8F8F8F" transform="translate(144,329)"/>
<path d="M0 0 C3.375 0.9375 3.375 0.9375 5.375 3.9375 C5.69662076 7.0250593 5.86224515 9.07765561 4.3125 11.8125 C1.2680714 13.58023274 -1.1881012 13.30573916 -4.625 12.9375 C-6.5625 11.8125 -6.5625 11.8125 -7.625 9.9375 C-8.16352618 6.32168138 -8.04736225 4.59638511 -6.0625 1.5 C-3.625 -0.0625 -3.625 -0.0625 0 0 Z " fill="#AFA3FE" transform="translate(214.625,382.0625)"/>
<path d="M0 0 C3 2 3 2 3.875 4.3125 C4.03486723 7.74964547 2.98450394 9.25222531 1 12 C0 13 0 13 -2.8125 13.375 C-6 13 -6 13 -8.4375 10.875 C-10 8 -10 8 -9.9375 4.8125 C-8.20703851 -0.37888446 -4.91036896 -0.40919741 0 0 Z " fill="#49FEF7" transform="translate(297,305)"/>
<path d="M0 0 C0.70125 0.00515625 1.4025 0.0103125 2.125 0.015625 C2.82625 0.01046875 3.5275 0.0053125 4.25 0 C6.125 0.265625 6.125 0.265625 8.125 2.265625 C8.80473856 9.4028799 8.80473856 9.4028799 6.5 12.328125 C3.25221302 13.61014618 1.43203161 13.32106062 -1.875 12.265625 C-3.8125 10.578125 -3.8125 10.578125 -4.875 8.265625 C-4.41660363 0.62568551 -4.41660363 0.62568551 0 0 Z " fill="#5CFFFD" transform="translate(354.875,401.734375)"/>
<path d="M0 0 C2 2 2 2 2.25 5.4375 C2 9 2 9 0 12 C-7.01123596 12.77902622 -7.01123596 12.77902622 -10.0625 10.375 C-11.34452118 7.12721302 -11.05543562 5.30703161 -10 2 C-6.87424861 -1.58882567 -4.39869419 -1.24310923 0 0 Z " fill="#4DFFF9" transform="translate(333,351)"/>
<path d="M0 0 C1.9375 1.6875 1.9375 1.6875 3 4 C2.77962372 7.67293796 2.63033454 9.36966546 0 12 C-6.00458716 12.54587156 -6.00458716 12.54587156 -8.9375 10.9375 C-10.63335287 7.84506242 -10.43060657 5.44485259 -10 2 C-7.0239502 -1.66283052 -4.29996319 -1.37232868 0 0 Z " fill="#4FF7F7" transform="translate(249,342)"/>
<path d="M0 0 C0.33 0 0.66 0 1 0 C1 22.77 1 45.54 1 69 C-1.31 68.67 -3.62 68.34 -6 68 C-6 64.7 -6 61.4 -6 58 C-4.35 58.99 -2.7 59.98 -1 61 C-0.67 40.87 -0.34 20.74 0 0 Z " fill="#B5FFFE" transform="translate(275,417)"/>
<path d="M0 0 C0 3 0 3 -1 6 C-1.99 6.495 -1.99 6.495 -3 7 C-3 8.65 -3 10.3 -3 12 C-3.66 12 -4.32 12 -5 12 C-5.33 12.66 -5.66 13.32 -6 14 C-11.32 21.6 -11.32 21.6 -15.625 22.625 C-16.40875 22.74875 -17.1925 22.8725 -18 23 C-18.66 23.66 -19.32 24.32 -20 25 C-21.32392972 26.01241685 -22.65599167 27.01439389 -24 28 C-24 25 -24 25 -22.73828125 23.51953125 C-21.87783203 22.76736328 -21.87783203 22.76736328 -21 22 C-20.39542969 21.46761719 -19.79085937 20.93523437 -19.16796875 20.38671875 C-18.51441406 19.82597656 -17.86085937 19.26523437 -17.1875 18.6875 C-12.02231587 14.17745871 -7.46876747 9.99150745 -4 4 C-2.70420353 2.63015802 -1.38007251 1.2848951 0 0 Z " fill="#7BB2AC" transform="translate(257,263)"/>
<path d="M0 0 C0.66 0.33 1.32 0.66 2 1 C1.13758379 8.523838 -0.36365178 11.97629833 -6 17 C-6 17.99 -6 18.98 -6 20 C-6.66 20 -7.32 20 -8 20 C-9.22690583 7.56053812 -9.22690583 7.56053812 -6.21875 3.734375 C-4.2017219 2.27131941 -2.25425259 1.0566809 0 0 Z " fill="#8EC7FE" transform="translate(227,399)"/>
<path d="M0 0 C0.33 0 0.66 0 1 0 C1.12910853 6.74233419 0.797837 13.30386804 0 20 C-1.32 19.67 -2.64 19.34 -4 19 C-4 19.66 -4 20.32 -4 21 C-4.99 20.67 -5.98 20.34 -7 20 C-7.6875 17.9375 -7.6875 17.9375 -8 16 C-7.01 15.67 -6.02 15.34 -5 15 C-4.87625 13.741875 -4.7525 12.48375 -4.625 11.1875 C-4.30131941 7.89674737 -3.93395001 6.90092502 -2 4 C-1.34 4 -0.68 4 0 4 C0 2.68 0 1.36 0 0 Z " fill="#C48AFE" transform="translate(206,416)"/>
<path d="M0 0 C4.62 0 9.24 0 14 0 C14 1.98 14 3.96 14 6 C12.04174127 6.02694851 10.08337774 6.04637218 8.125 6.0625 C7.03445313 6.07410156 5.94390625 6.08570313 4.8203125 6.09765625 C2 6 2 6 0 5 C0 3.35 0 1.7 0 0 Z " fill="#85FFFE" transform="translate(287,477)"/>
<path d="M0 0 C0.65234375 1.77734375 0.65234375 1.77734375 1 4 C0.00390625 5.81640625 0.00390625 5.81640625 -1.4375 7.5625 C-3.76010942 10.33929632 -3.76010942 10.33929632 -4 14 C-4.66 14 -5.32 14 -6 14 C-6.66 17.3 -7.32 20.6 -8 24 C-8.66 24 -9.32 24 -10 24 C-10.185625 24.804375 -10.185625 24.804375 -10.375 25.625 C-11.12206016 28.4638286 -12.05303364 31.22223202 -13 34 C-14.74110736 29.89223771 -13.08660197 26.52998631 -11.5625 22.625 C-11.29679199 21.92761719 -11.03108398 21.23023438 -10.75732422 20.51171875 C-7.88696354 13.25959104 -4.08039241 6.62804859 0 0 Z " fill="#8DF3F3" transform="translate(203,328)"/>
<path d="M0 0 C0.33 0 0.66 0 1 0 C1 13.86 1 27.72 1 42 C1.66 42.33 2.32 42.66 3 43 C2.34 43.99 1.68 44.98 1 46 C1.763125 45.62875 2.52625 45.2575 3.3125 44.875 C4.199375 44.58625 5.08625 44.2975 6 44 C6.99 44.66 7.98 45.32 9 46 C6.03 46.66 3.06 47.32 0 48 C0 32.16 0 16.32 0 0 Z " fill="#7EFFFE" transform="translate(313,435)"/>
<path d="M0 0 C8.91 0 17.82 0 27 0 C20.58354342 4.27763772 12.01364937 3.93598974 4.59375 2.55078125 C3.04111082 2.10217034 1.51469091 1.56360592 0 1 C0 0.67 0 0.34 0 0 Z " fill="#7D9FA3" transform="translate(149,329)"/>
<path d="M0 0 C12.87 0 25.74 0 39 0 C34 4 34 4 32.00219727 3.95751953 C31.01304321 3.61116455 31.01304321 3.61116455 30.00390625 3.2578125 C23.98877964 1.5641484 18.14588032 1.78185638 11.9375 1.875 C10.20983398 1.88853516 10.20983398 1.88853516 8.44726562 1.90234375 C5.63128807 1.92571286 2.81575842 1.95847435 0 2 C0 1.34 0 0.68 0 0 Z " fill="#CABBF2" transform="translate(130,340)"/>
<path d="M0 0 C4.875 2.875 4.875 2.875 6 4 C6.04080783 5.99958364 6.04254356 8.00045254 6 10 C4.02 10 2.04 10 0 10 C0 6.7 0 3.4 0 0 Z " fill="#A8FFFE" transform="translate(269,475)"/>
<path d="M0 0 C-1.2578125 1.484375 -1.2578125 1.484375 -3 3 C-7.55553378 3.29390541 -11.55522251 3.11119437 -16 2 C-16 1.34 -16 0.68 -16 0 C-10.03241883 -2.28545662 -6.07806891 -1.79172099 0 0 Z " fill="#D29BF8" transform="translate(158,344)"/>
<path d="M0 0 C0.33 0 0.66 0 1 0 C1 2.64 1 5.28 1 8 C-3.95 8 -8.9 8 -14 8 C-14 7.01 -14 6.02 -14 5 C-7.07 5.495 -7.07 5.495 0 6 C0 4.02 0 2.04 0 0 Z " fill="#9AFFFE" transform="translate(301,477)"/>
<path d="M0 0 C0.66 0.33 1.32 0.66 2 1 C-3.61 6.61 -9.22 12.22 -15 18 C-15 13.07254925 -11.31913617 10.39978807 -8 7 C-5.39491779 4.58973264 -2.72918126 2.2684104 0 0 Z " fill="#76F5E6" transform="translate(224,305)"/>
<path d="M0 0 C0.99 0 1.98 0 3 0 C3 2.64 3 5.28 3 8 C2.34 7.34 1.68 6.68 1 6 C-1.10820797 6.3185177 -1.10820797 6.3185177 -3 7 C-2.67 7.99 -2.34 8.98 -2 10 C-2.99 9.67 -3.98 9.34 -5 9 C-4.75 7.125 -4.75 7.125 -4 5 C-1.9375 3.75 -1.9375 3.75 0 3 C0 2.01 0 1.02 0 0 Z " fill="#FA87FF" transform="translate(132,413)"/>
<path d="M0 0 C1.98 0 3.96 0 6 0 C6.33 0.99 6.66 1.98 7 3 C6.01 4.485 6.01 4.485 5 6 C2.03 5.505 2.03 5.505 -1 5 C-0.67 3.35 -0.34 1.7 0 0 Z " fill="#FCADFF" transform="translate(165,420)"/>
<path d="M0 0 C0.33 0 0.66 0 1 0 C1.33 2.97 1.66 5.94 2 9 C1.34 9 0.68 9 0 9 C0 9.66 0 10.32 0 11 C-0.99 10.67 -1.98 10.34 -3 10 C-3.6875 7.9375 -3.6875 7.9375 -4 6 C-3.01 5.67 -2.02 5.34 -1 5 C-0.67 3.35 -0.34 1.7 0 0 Z " fill="#D985FE" transform="translate(202,426)"/>
<path d="M0 0 C0.33 0 0.66 0 1 0 C1 2.64 1 5.28 1 8 C0.34 8 -0.32 8 -1 8 C-1.12375 8.53625 -1.2475 9.0725 -1.375 9.625 C-2.12206016 12.4638286 -3.05303364 15.22223202 -4 18 C-5.72251754 13.9154674 -4.07280563 10.63026304 -2.5625 6.75 C-2.31951172 6.1003125 -2.07652344 5.450625 -1.82617188 4.78125 C-1.22714006 3.18383183 -0.61485679 1.59139406 0 0 Z " fill="#BDB6FB" transform="translate(194,344)"/>
<path d="M0 0 C2.31 0 4.62 0 7 0 C6.25 5.75 6.25 5.75 4 8 C2.5393715 5.35261084 2 4.10551666 2 1 C1.34 0.67 0.68 0.34 0 0 Z " fill="#BFBFF6" transform="translate(177,340)"/>
<path d="M0 0 C4.62 0 9.24 0 14 0 C14 0.66 14 1.32 14 2 C9.20699867 3.39151652 4.84864218 2.68662689 0 2 C0 1.34 0 0.68 0 0 Z " fill="#75FFFD" transform="translate(287,477)"/>
<path d="M0 0 C3.63 0 7.26 0 11 0 C8.9375 2.125 8.9375 2.125 6 4 C2.1875 3.25 2.1875 3.25 -1 2 C-0.67 1.34 -0.34 0.68 0 0 Z " fill="#BEB3F4" transform="translate(158,340)"/>
<path d="M0 0 C0.99 0 1.98 0 3 0 C2.39174965 4.34464536 1.73832608 8.67551867 1 13 C0.67 13 0.34 13 0 13 C0 8.71 0 4.42 0 0 Z " fill="#73E6FD" transform="translate(240,447)"/>
<path d="M0 0 C0.33 0 0.66 0 1 0 C0.67 2.64 0.34 5.28 0 8 C-1.65 6.68 -3.3 5.36 -5 4 C-4.67 3.34 -4.34 2.68 -4 2 C-3.34 2 -2.68 2 -2 2 C-1.34 1.34 -0.68 0.68 0 0 Z " fill="#D0B5FE" transform="translate(215,448)"/>
<path d="M0 0 C0.66 0.33 1.32 0.66 2 1 C1.34 4.3 0.68 7.6 0 11 C-0.33 11 -0.66 11 -1 11 C-1.22174933 9.54364629 -1.42698698 8.08477044 -1.625 6.625 C-1.74101562 5.81289063 -1.85703125 5.00078125 -1.9765625 4.1640625 C-1.98429688 3.44992187 -1.99203125 2.73578125 -2 2 C-1.34 1.34 -0.68 0.68 0 0 Z " fill="#71DCFD" transform="translate(227,399)"/>
<path d="M0 0 C0.66 0.33 1.32 0.66 2 1 C1.1875 3.4375 1.1875 3.4375 0 6 C-0.99 6.33 -1.98 6.66 -3 7 C-3.33 7.66 -3.66 8.32 -4 9 C-4.66 8.67 -5.32 8.34 -6 8 C-4.625 5.5 -4.625 5.5 -3 3 C-2.34 3 -1.68 3 -1 3 C-0.67 2.01 -0.34 1.02 0 0 Z " fill="#76B4B4" transform="translate(248,276)"/>
<path d="M0 0 C0.7425 0.0825 1.485 0.165 2.25 0.25 C1.125 2.25 1.125 2.25 -0.75 4.25 C-3.9375 4.5 -3.9375 4.5 -6.75 4.25 C-3.42692308 0.31153846 -3.42692308 0.31153846 0 0 Z " fill="#E57EFD" transform="translate(142.75,347.75)"/>
<path d="M0 0 C1.9375 0.75 1.9375 0.75 4 2 C4.75 4.125 4.75 4.125 5 6 C3.68 5.67 2.36 5.34 1 5 C0.67 3.35 0.34 1.7 0 0 Z " fill="#8AFFFE" transform="translate(270,476)"/>
<path d="M0 0 C0 3.26516041 -0.2965511 5.17421216 -2.4375 7.6875 C-4 9 -4 9 -6 9 C-5.52797514 4.75177626 -3.03344482 2.80010291 0 0 Z " fill="#8B9B96" transform="translate(257,263)"/>
<path d="M0 0 C0.66 0 1.32 0 2 0 C2 1.65 2 3.3 2 5 C2.66 5 3.32 5 4 5 C4 5.66 4 6.32 4 7 C2.02 7 0.04 7 -2 7 C-2 6.34 -2 5.68 -2 5 C-1.34 5 -0.68 5 0 5 C0 3.35 0 1.7 0 0 Z " fill="#FDB4FF" transform="translate(146,418)"/>
<path d="M0 0 C0.33 0.66 0.66 1.32 1 2 C1.763125 1.62875 2.52625 1.2575 3.3125 0.875 C4.199375 0.58625 5.08625 0.2975 6 0 C6.99 0.66 7.98 1.32 9 2 C6.03 2.66 3.06 3.32 0 4 C0 2.68 0 1.36 0 0 Z " fill="#A8FFFE" transform="translate(313,479)"/>
<path d="M0 0 C0.5534764 2.07553648 1 3.84365964 1 6 C0.34 6 -0.32 6 -1 6 C-1.66 7.32 -2.32 8.64 -3 10 C-2.49287967 6.28111761 -1.88391785 3.26545761 0 0 Z " fill="#9DE0F7" transform="translate(198,336)"/>
<path d="M0 0 C0.99 0.495 0.99 0.495 2 1 C2 1.66 2 2.32 2 3 C4.475 3.99 4.475 3.99 7 5 C6.67 5.66 6.34 6.32 6 7 C3.00675737 5.9024777 2.15389099 5.32317108 0.75 2.375 C0.5025 1.59125 0.255 0.8075 0 0 Z " fill="#A2BFAD" transform="translate(247,104)"/>
<path d="M0 0 C1.32 0 2.64 0 4 0 C3.67 0.66 3.34 1.32 3 2 C2.01 1.67 1.02 1.34 0 1 C0 0.67 0 0.34 0 0 Z " fill="#92B495" transform="translate(224,87)"/>
<path d="M0 0 C0.99 0.99 1.98 1.98 3 3 C2.01 3.495 2.01 3.495 1 4 C0.67 2.68 0.34 1.36 0 0 Z " fill="#92B495" transform="translate(219,84)"/>
<path d="M0 0 C0.99 0.33 1.98 0.66 3 1 C2.01 1.33 1.02 1.66 0 2 C0 1.34 0 0.68 0 0 Z " fill="#92B495" transform="translate(234,91)"/>
<path d="M0 0 C0.99 0.495 0.99 0.495 2 1 C1.01 1.495 1.01 1.495 0 2 C0 1.34 0 0.68 0 0 Z " fill="#76B4B4" transform="translate(239,286)"/>
<path d="" fill="#8F8F8F" transform="translate(0,0)"/>
<path d="" fill="#76B4B4" transform="translate(0,0)"/>
<path d="" fill="#76B4B4" transform="translate(0,0)"/>
<path d="" fill="#8F8F8F" transform="translate(0,0)"/>
<path d="" fill="#8F8F8F" transform="translate(0,0)"/>
<path d="" fill="#8F8F8F" transform="translate(0,0)"/>
<path d="" fill="#8F8F8F" transform="translate(0,0)"/>
<path d="M0 0 C2 1 2 1 2 1 Z " fill="#92B495" transform="translate(246,99)"/>
<path d="" fill="#92B495" transform="translate(0,0)"/>
<path d="" fill="#8F8F8F" transform="translate(0,0)"/>
<path d="" fill="#8F8F8F" transform="translate(0,0)"/>
<path d="" fill="#8F8F8F" transform="translate(0,0)"/>
<path d="" fill="#8F8F8F" transform="translate(0,0)"/>
<path d="" fill="#8F8F8F" transform="translate(0,0)"/>
<path d="" fill="#8F8F8F" transform="translate(0,0)"/>
<path d="" fill="#76B4B4" transform="translate(0,0)"/>
<path d="" fill="#8F8F8F" transform="translate(0,0)"/>
<path d="" fill="#8F8F8F" transform="translate(0,0)"/>
<path d="" fill="#8F8F8F" transform="translate(0,0)"/>
<path d="" fill="#8F8F8F" transform="translate(0,0)"/>
<path d="" fill="#8F8F8F" transform="translate(0,0)"/>
<path d="" fill="#8F8F8F" transform="translate(0,0)"/>
<path d="" fill="#8F8F8F" transform="translate(0,0)"/>
<path d="" fill="#8F8F8F" transform="translate(0,0)"/>
<path d="" fill="#8F8F8F" transform="translate(0,0)"/>
<path d="" fill="#8F8F8F" transform="translate(0,0)"/>
<path d="" fill="#8F8F8F" transform="translate(0,0)"/>
<path d="" fill="#8F8F8F" transform="translate(0,0)"/>
<path d="" fill="#8F8F8F" transform="translate(0,0)"/>
<path d="" fill="#8F8F8F" transform="translate(0,0)"/>
<path d="" fill="#8F8F8F" transform="translate(0,0)"/>
<path d="" fill="#8F8F8F" transform="translate(0,0)"/>
<path d="" fill="#8F8F8F" transform="translate(0,0)"/>
<path d="" fill="#92B495" transform="translate(0,0)"/>
<path d="" fill="#92B495" transform="translate(0,0)"/>
<path d="" fill="#92B495" transform="translate(0,0)"/>
<path d="" fill="#92B495" transform="translate(0,0)"/>
<path d="" fill="#92B495" transform="translate(0,0)"/>
<path d="" fill="#92B495" transform="translate(0,0)"/>
<path d="" fill="#92B495" transform="translate(0,0)"/>
<path d="" fill="#92B495" transform="translate(0,0)"/>
<path d="" fill="#92B495" transform="translate(0,0)"/>
<path d="" fill="#8F8F8F" transform="translate(0,0)"/>
<path d="" fill="#8F8F8F" transform="translate(0,0)"/>
<path d="" fill="#8F8F8F" transform="translate(0,0)"/>
<path d="" fill="#8F8F8F" transform="translate(0,0)"/>
<path d="" fill="#8F8F8F" transform="translate(0,0)"/>
<path d="" fill="#8F8F8F" transform="translate(0,0)"/>
</svg>
