<svg data-v-fde0c5aa="" xmlns="http://www.w3.org/2000/svg" viewBox="0 0 300 300" class="iconAbove"><!----><defs data-v-fde0c5aa=""><!----></defs><rect data-v-fde0c5aa="" fill="transparent" x="0" y="0" width="300px" height="300px" class="logo-background-square"></rect><defs data-v-fde0c5aa=""><!----></defs><g data-v-fde0c5aa="" id="3f8cfe5f-3825-41bc-bad4-aa68aa422d6a" fill="#000000" transform="matrix(3.081527178318255,0,0,3.081527178318255,20.07318625808711,174.1148899867945)"><path d="M7.62 15.76L7.62 15.76Q7.34 15.98 7.00 16.23Q6.65 16.47 6.26 16.67Q5.87 16.87 5.44 17.00Q5.02 17.13 4.58 17.13L4.58 17.13Q4.44 17.13 4.31 17.10Q4.18 17.06 4.08 16.98Q3.98 16.89 3.92 16.75Q3.86 16.60 3.86 16.39L3.86 16.39Q3.86 16.13 3.89 15.10L3.89 15.10Q3.90 14.66 3.91 14.01Q3.93 13.36 3.95 12.43Q3.98 11.51 4.01 10.28Q4.05 9.06 4.09 7.47L4.09 7.47Q3.45 7.55 2.81 7.59Q2.18 7.64 1.54 7.64L1.54 7.64Q0.95 7.64 0.56 7.57Q0.17 7.50 0.01 7.33L0.01 7.33Q-0.08 7.18 0.07 6.95L0.07 6.95Q0.13 6.86 0.25 6.73Q0.36 6.61 0.56 6.46Q0.77 6.31 1.06 6.13Q1.35 5.95 1.76 5.75L1.76 5.75Q1.65 5.89 1.66 5.98Q1.67 6.07 1.72 6.13L1.72 6.13Q1.77 6.21 1.87 6.25L1.87 6.25Q2.07 6.33 2.48 6.39Q2.88 6.45 3.61 6.45L3.61 6.45Q4.40 6.45 5.17 6.38Q5.94 6.32 6.69 6.24Q7.44 6.17 8.18 6.10Q8.92 6.04 9.66 6.04L9.66 6.04Q9.86 6.04 10.01 6.05Q10.17 6.06 10.25 6.10L10.25 6.10Q10.38 6.15 10.34 6.25Q10.29 6.36 10.14 6.49Q9.99 6.62 9.76 6.77Q9.54 6.92 9.30 7.05Q9.06 7.18 8.84 7.28Q8.62 7.38 8.50 7.42L8.50 7.42Q8.56 7.21 8.42 7.12Q8.27 7.03 7.81 7.07L7.81 7.07Q6.79 7.15 5.80 7.27L5.80 7.27L5.53 15.76Q5.69 15.87 5.91 15.92Q6.13 15.97 6.36 15.97L6.36 15.97Q6.59 15.97 6.82 15.94Q7.04 15.91 7.22 15.87L7.22 15.87Q7.43 15.82 7.62 15.76ZM13.86 11.66L18.87 10.02Q18.09 10.40 17.41 10.70Q16.74 11.00 16.23 11.20L16.23 11.20Q15.63 11.44 15.13 11.63L15.13 11.63Q14.83 11.76 14.45 11.89Q14.08 12.02 13.68 12.15Q13.28 12.28 12.85 12.40Q12.43 12.53 12.02 12.65L12.02 12.65L12.02 12.79Q12.02 13.49 12.25 14.05Q12.47 14.62 12.87 15.01Q13.26 15.40 13.82 15.61Q14.37 15.82 15.04 15.82L15.04 15.82Q15.39 15.82 15.73 15.76Q16.08 15.71 16.39 15.62Q16.70 15.52 16.97 15.39Q17.25 15.26 17.46 15.11L17.46 15.11Q16.94 15.58 16.39 15.89Q15.84 16.21 15.29 16.40Q14.74 16.60 14.20 16.69Q13.67 16.78 13.17 16.78L13.17 16.78Q12.67 16.80 12.19 16.63Q11.71 16.46 11.31 16.12Q10.92 15.78 10.64 15.27Q10.37 14.76 10.29 14.08L10.29 14.08Q10.25 13.84 10.26 13.62Q10.26 13.40 10.30 13.18L10.30 13.18Q10.06 13.27 9.87 13.34Q9.67 13.42 9.55 13.49L9.55 13.49Q9.75 13.36 9.95 13.24Q10.14 13.12 10.34 13.02L10.34 13.02Q10.45 12.48 10.74 12.00Q11.02 11.51 11.42 11.09Q11.82 10.68 12.31 10.34Q12.80 10.00 13.33 9.76Q13.86 9.52 14.41 9.39Q14.96 9.26 15.47 9.26L15.47 9.26Q15.81 9.26 16.05 9.37Q16.28 9.47 16.37 9.73L16.37 9.73Q16.41 10.00 16.17 10.32L16.17 10.32Q16.06 10.45 15.89 10.61Q15.72 10.76 15.44 10.93Q15.16 11.10 14.78 11.29Q14.39 11.47 13.86 11.66L13.86 11.66ZM13.45 11.68L13.45 11.68Q13.75 11.55 13.98 11.40Q14.22 11.25 14.35 11.09Q14.49 10.92 14.49 10.75Q14.50 10.57 14.35 10.37L14.35 10.37Q14.25 10.22 14.06 10.16Q13.88 10.10 13.69 10.10L13.69 10.10Q13.51 10.10 13.35 10.14Q13.19 10.18 13.06 10.24L13.06 10.24Q12.98 10.29 12.84 10.45Q12.69 10.61 12.54 10.87Q12.39 11.12 12.26 11.46Q12.13 11.80 12.07 12.20L12.07 12.20Q12.50 12.04 12.84 11.92Q13.19 11.80 13.45 11.68ZM25.42 15.03L25.42 15.03Q25.14 15.29 24.72 15.57Q24.29 15.86 23.79 16.11Q23.28 16.36 22.70 16.53Q22.13 16.70 21.53 16.71L21.53 16.71Q21.19 16.73 20.81 16.66Q20.43 16.58 20.07 16.43Q19.70 16.27 19.37 16.03Q19.04 15.78 18.79 15.44Q18.53 15.09 18.39 14.65Q18.24 14.21 18.24 13.66L18.24 13.66Q18.24 12.98 18.46 12.40Q18.69 11.81 19.07 11.33Q19.46 10.85 19.97 10.48Q20.49 10.10 21.08 9.85Q21.67 9.60 22.30 9.46Q22.93 9.33 23.53 9.33L23.53 9.33Q23.60 9.33 23.76 9.33Q23.92 9.34 24.11 9.35Q24.30 9.37 24.50 9.40Q24.71 9.43 24.87 9.47Q25.04 9.52 25.15 9.59Q25.25 9.67 25.25 9.77L25.25 9.77Q25.25 9.88 25.14 9.99Q25.02 10.10 24.86 10.20L24.86 10.20Q24.74 10.28 24.54 10.40L24.54 10.40Q24.37 10.49 24.11 10.64Q23.84 10.79 23.46 11.00L23.46 11.00Q23.58 10.78 23.50 10.63Q23.42 10.48 23.20 10.39Q22.99 10.29 22.69 10.25Q22.38 10.21 22.06 10.21L22.06 10.21Q21.85 10.21 21.65 10.23Q21.44 10.25 21.27 10.27Q21.10 10.29 20.96 10.33Q20.83 10.36 20.75 10.40L20.75 10.40Q20.62 10.45 20.48 10.67Q20.34 10.90 20.23 11.22Q20.12 11.54 20.05 11.94Q19.97 12.33 19.97 12.74L19.97 12.74Q19.97 13.35 20.21 13.88Q20.44 14.42 20.84 14.81Q21.24 15.21 21.77 15.44Q22.31 15.66 22.90 15.66L22.90 15.66Q23.54 15.66 24.19 15.47Q24.83 15.29 25.42 15.03ZM28.56 15.78L28.56 15.78L26.92 16.96Q26.95 15.18 26.97 13.77Q27.00 12.35 27.02 11.25Q27.04 10.14 27.05 9.33Q27.06 8.52 27.07 7.94L27.07 7.94Q27.09 6.58 27.09 6.03L27.09 6.03Q27.11 5.20 26.85 4.73Q26.60 4.27 26.07 4.27L26.07 4.27Q25.89 4.27 25.71 4.31Q25.53 4.35 25.31 4.46L25.31 4.46Q25.58 4.27 25.87 4.07Q26.17 3.87 26.47 3.71Q26.78 3.54 27.09 3.44Q27.40 3.33 27.71 3.33L27.71 3.33Q27.98 3.33 28.17 3.43Q28.36 3.53 28.49 3.70Q28.62 3.87 28.68 4.08Q28.75 4.30 28.78 4.53Q28.81 4.76 28.82 5.00Q28.83 5.23 28.83 5.43L28.83 5.43Q28.83 5.53 28.82 5.80Q28.82 6.07 28.81 6.47Q28.81 6.88 28.80 7.40Q28.79 7.92 28.77 8.51Q28.76 9.11 28.75 9.76Q28.73 10.41 28.71 11.08L28.71 11.08Q29.05 10.69 29.49 10.35Q29.93 10.01 30.42 9.77Q30.91 9.53 31.40 9.41Q31.90 9.29 32.34 9.34L32.34 9.34Q32.64 9.39 32.97 9.52Q33.30 9.65 33.58 9.91Q33.86 10.18 34.03 10.61Q34.20 11.05 34.19 11.70L34.19 11.70Q34.17 12.46 34.12 13.10Q34.08 13.74 34.08 14.23L34.08 14.23Q34.08 14.53 34.13 14.79Q34.17 15.05 34.29 15.25Q34.41 15.44 34.61 15.56Q34.82 15.67 35.12 15.67L35.12 15.67Q35.40 15.67 35.70 15.57Q36.00 15.46 36.31 15.24L36.31 15.24Q35.81 15.69 35.40 15.99Q34.99 16.29 34.63 16.47Q34.28 16.66 33.97 16.74Q33.66 16.82 33.37 16.81L33.37 16.81Q33.09 16.80 32.88 16.70Q32.68 16.59 32.56 16.37Q32.44 16.15 32.39 15.79Q32.34 15.44 32.35 14.93L32.35 14.93Q32.38 14.48 32.41 13.94Q32.44 13.39 32.44 12.86L32.44 12.86Q32.44 12.25 32.36 11.81Q32.28 11.38 32.06 11.09Q31.85 10.81 31.47 10.67Q31.09 10.53 30.49 10.53L30.49 10.53Q30.18 10.53 29.92 10.59Q29.66 10.64 29.51 10.75L29.51 10.75Q29.39 10.83 29.24 11.15Q29.10 11.47 28.96 12.08Q28.83 12.68 28.72 13.59Q28.61 14.51 28.56 15.78ZM45.62 15.65L45.62 15.65Q45.21 15.92 44.82 16.15Q44.43 16.38 44.07 16.55Q43.72 16.72 43.40 16.83Q43.08 16.93 42.81 16.96L42.81 16.96Q42.55 16.99 42.35 16.98Q42.14 16.98 42.01 16.89Q41.87 16.80 41.80 16.61Q41.73 16.42 41.73 16.08L41.73 16.08Q41.73 15.91 41.74 15.49Q41.74 15.07 41.74 14.48Q41.75 13.90 41.75 13.20Q41.76 12.51 41.77 11.80Q41.77 11.09 41.78 10.41Q41.79 9.73 41.79 9.18Q41.80 8.63 41.81 8.25Q41.82 7.88 41.82 7.77L41.82 7.77Q41.83 7.53 41.62 7.43Q41.41 7.33 41.10 7.33L41.10 7.33Q40.85 7.33 40.58 7.38Q40.31 7.42 40.06 7.49L40.06 7.49Q40.41 7.25 40.75 7.06Q41.08 6.86 41.43 6.72Q41.77 6.58 42.13 6.50Q42.49 6.42 42.87 6.42L42.87 6.42Q43.02 6.42 43.15 6.44Q43.29 6.45 43.38 6.49Q43.48 6.53 43.54 6.59Q43.60 6.65 43.60 6.74L43.60 6.74Q43.60 7.01 43.59 8.03L43.59 8.03Q43.59 8.47 43.59 9.12Q43.59 9.77 43.58 10.69Q43.58 11.61 43.58 12.82Q43.57 14.04 43.57 15.61L43.57 15.61Q43.94 15.68 44.25 15.71Q44.55 15.73 44.79 15.73L44.79 15.73Q44.99 15.73 45.14 15.72Q45.29 15.70 45.40 15.69L45.40 15.69Q45.53 15.67 45.62 15.65ZM48.87 15.78L48.87 15.78L47.24 16.96Q47.30 15.64 47.33 14.71Q47.37 13.78 47.38 13.18L47.38 13.18Q47.40 12.48 47.40 12.02L47.40 12.02Q47.43 11.19 47.17 10.72Q46.92 10.25 46.38 10.25L46.38 10.25Q46.21 10.25 46.02 10.31Q45.83 10.36 45.62 10.45L45.62 10.45Q45.89 10.26 46.18 10.06Q46.48 9.86 46.79 9.69Q47.09 9.53 47.40 9.42Q47.71 9.32 48.02 9.32L48.02 9.32Q48.30 9.32 48.54 9.43Q48.77 9.55 48.90 9.82L48.90 9.82Q49.01 10.06 49.05 10.34Q49.10 10.63 49.11 10.97L49.11 10.97Q49.46 10.60 49.89 10.28Q50.33 9.96 50.80 9.73Q51.27 9.51 51.75 9.40Q52.23 9.29 52.65 9.34L52.65 9.34Q52.96 9.39 53.29 9.52Q53.62 9.65 53.90 9.91Q54.17 10.18 54.35 10.61Q54.52 11.05 54.50 11.70L54.50 11.70Q54.48 12.46 54.43 13.10Q54.39 13.74 54.39 14.23L54.39 14.23Q54.39 14.53 54.43 14.79Q54.48 15.05 54.60 15.25Q54.72 15.44 54.93 15.56Q55.13 15.67 55.44 15.67L55.44 15.67Q55.71 15.67 56.02 15.57Q56.32 15.46 56.63 15.24L56.63 15.24Q56.13 15.69 55.72 15.99Q55.30 16.29 54.95 16.47Q54.59 16.66 54.28 16.74Q53.98 16.82 53.69 16.81L53.69 16.81Q53.40 16.80 53.20 16.70Q52.99 16.59 52.87 16.37Q52.75 16.15 52.70 15.79Q52.65 15.44 52.66 14.93L52.66 14.93Q52.68 14.48 52.72 13.94Q52.75 13.39 52.75 12.86L52.75 12.86Q52.75 12.25 52.67 11.81Q52.59 11.38 52.37 11.09Q52.16 10.81 51.78 10.67Q51.40 10.53 50.80 10.53L50.80 10.53Q50.37 10.53 50.07 10.70Q49.77 10.87 49.57 11.16Q49.38 11.44 49.26 11.82Q49.15 12.20 49.09 12.63Q49.03 13.06 49.01 13.50Q48.99 13.95 48.98 14.37Q48.97 14.79 48.95 15.15Q48.93 15.52 48.87 15.78ZM67.05 15.59L67.05 15.59Q66.12 16.22 65.47 16.50Q64.83 16.77 64.37 16.77L64.37 16.77Q64.19 16.77 63.99 16.71Q63.80 16.65 63.62 16.51Q63.44 16.37 63.30 16.14Q63.15 15.90 63.07 15.54L63.07 15.54Q62.73 15.78 62.33 16.02Q61.92 16.26 61.49 16.45Q61.06 16.65 60.62 16.76Q60.19 16.88 59.79 16.88L59.79 16.88Q59.12 16.88 58.59 16.61Q58.06 16.34 57.69 15.89Q57.31 15.45 57.11 14.88Q56.91 14.31 56.91 13.71L56.91 13.71Q56.91 13.04 57.12 12.51Q57.33 11.98 57.69 11.57Q58.04 11.16 58.52 10.84Q58.99 10.52 59.52 10.28Q60.05 10.04 60.61 9.86Q61.17 9.68 61.70 9.53L61.70 9.53Q61.75 9.52 61.82 9.52L61.82 9.52Q61.87 9.51 61.95 9.51Q62.03 9.50 62.13 9.50L62.13 9.50Q62.32 9.50 62.57 9.53Q62.81 9.55 63.08 9.61L63.08 9.61L63.23 5.30Q63.21 4.92 63.09 4.66L63.09 4.66Q63.03 4.55 62.95 4.45Q62.87 4.35 62.75 4.29Q62.63 4.24 62.46 4.23Q62.30 4.22 62.08 4.29L62.08 4.29Q62.34 4.17 62.64 4.02Q62.95 3.86 63.24 3.73Q63.54 3.60 63.82 3.50Q64.11 3.41 64.35 3.41L64.35 3.41Q64.61 3.41 64.78 3.55Q64.96 3.68 64.98 3.97L64.98 3.97Q65.00 4.16 65.00 4.50Q65.00 4.83 65.00 5.30L65.00 5.30Q65.00 5.85 64.99 6.53Q64.98 7.21 64.97 7.95Q64.96 8.69 64.93 9.45Q64.91 10.22 64.90 10.95Q64.89 11.68 64.88 12.34Q64.87 13.00 64.87 13.52L64.87 13.52Q64.87 13.93 64.92 14.33Q64.97 14.72 65.12 15.04Q65.28 15.35 65.55 15.55Q65.83 15.74 66.29 15.74L66.29 15.74Q66.46 15.74 66.65 15.71Q66.83 15.67 67.05 15.59ZM63.04 11.11L63.04 11.11Q62.80 10.90 62.53 10.77Q62.25 10.63 61.96 10.54Q61.67 10.46 61.38 10.42Q61.09 10.38 60.82 10.38L60.82 10.38Q60.22 10.38 59.80 10.56Q59.38 10.74 59.12 11.07Q58.85 11.40 58.73 11.85Q58.60 12.31 58.60 12.87L58.60 12.87Q58.60 13.47 58.79 14.01Q58.98 14.55 59.32 14.95Q59.66 15.36 60.15 15.60Q60.64 15.83 61.24 15.83L61.24 15.83Q61.66 15.83 61.96 15.73Q62.26 15.62 62.46 15.43Q62.67 15.24 62.79 14.98Q62.91 14.71 62.99 14.39L62.99 14.39Q62.99 14.12 62.99 13.76Q62.99 13.41 63.00 12.98Q63.01 12.56 63.02 12.09Q63.03 11.61 63.04 11.11ZM71.42 11.66L76.43 10.02Q75.64 10.40 74.97 10.70Q74.29 11.00 73.78 11.20L73.78 11.20Q73.19 11.44 72.69 11.63L72.69 11.63Q72.38 11.76 72.01 11.89Q71.63 12.02 71.23 12.15Q70.83 12.28 70.41 12.40Q69.99 12.53 69.58 12.65L69.58 12.65L69.58 12.79Q69.58 13.49 69.80 14.05Q70.02 14.62 70.42 15.01Q70.81 15.40 71.37 15.61Q71.92 15.82 72.59 15.82L72.59 15.82Q72.94 15.82 73.28 15.76Q73.63 15.71 73.94 15.62Q74.25 15.52 74.53 15.39Q74.80 15.26 75.01 15.11L75.01 15.11Q74.49 15.58 73.94 15.89Q73.39 16.21 72.84 16.40Q72.29 16.60 71.75 16.69Q71.22 16.78 70.72 16.78L70.72 16.78Q70.23 16.80 69.74 16.63Q69.26 16.46 68.87 16.12Q68.47 15.78 68.20 15.27Q67.92 14.76 67.84 14.08L67.84 14.08Q67.81 13.84 67.81 13.62Q67.81 13.40 67.85 13.18L67.85 13.18Q67.61 13.27 67.42 13.34Q67.22 13.42 67.10 13.49L67.10 13.49Q67.30 13.36 67.50 13.24Q67.70 13.12 67.89 13.02L67.89 13.02Q68.00 12.48 68.29 12.00Q68.57 11.51 68.97 11.09Q69.37 10.68 69.86 10.34Q70.36 10.00 70.89 9.76Q71.42 9.52 71.96 9.39Q72.51 9.26 73.02 9.26L73.02 9.26Q73.36 9.26 73.60 9.37Q73.83 9.47 73.92 9.73L73.92 9.73Q73.96 10.00 73.72 10.32L73.72 10.32Q73.62 10.45 73.44 10.61Q73.27 10.76 72.99 10.93Q72.71 11.10 72.33 11.29Q71.94 11.47 71.42 11.66L71.42 11.66ZM71.00 11.68L71.00 11.68Q71.30 11.55 71.53 11.40Q71.77 11.25 71.90 11.09Q72.04 10.92 72.04 10.75Q72.05 10.57 71.90 10.37L71.90 10.37Q71.80 10.22 71.62 10.16Q71.44 10.10 71.24 10.10L71.24 10.10Q71.07 10.10 70.90 10.14Q70.74 10.18 70.62 10.24L70.62 10.24Q70.53 10.29 70.39 10.45Q70.25 10.61 70.10 10.87Q69.95 11.12 69.81 11.46Q69.68 11.80 69.62 12.20L69.62 12.20Q70.05 12.04 70.40 11.92Q70.75 11.80 71.00 11.68ZM84.25 15.24L84.25 15.24Q83.74 15.63 83.34 15.91Q82.95 16.19 82.62 16.38Q82.30 16.56 82.03 16.66Q81.76 16.75 81.52 16.78L81.52 16.78Q81.15 16.82 80.86 16.56Q80.57 16.30 80.25 15.83L80.25 15.83Q80.17 15.73 80.05 15.54Q79.92 15.35 79.75 15.10Q79.59 14.85 79.40 14.56Q79.20 14.26 79.00 13.94L79.00 13.94Q78.61 14.51 78.23 15.07Q77.85 15.63 77.49 16.14Q77.13 16.64 76.81 17.06Q76.48 17.47 76.21 17.75L76.21 17.75Q75.82 18.18 75.39 18.57L75.39 18.57Q75.20 18.74 74.99 18.92Q74.77 19.09 74.54 19.26Q74.31 19.42 74.06 19.56Q73.81 19.70 73.57 19.80L73.57 19.80L73.51 19.30Q73.87 19.17 74.19 18.98Q74.52 18.79 74.77 18.61L74.77 18.61Q75.07 18.40 75.32 18.18L75.32 18.18Q75.65 17.89 76.00 17.45Q76.35 17.01 76.72 16.47Q77.08 15.94 77.45 15.34Q77.83 14.73 78.19 14.11L78.19 14.11Q78.29 13.94 78.40 13.76Q78.51 13.58 78.63 13.38L78.63 13.38Q78.39 13.02 78.17 12.66Q77.94 12.31 77.73 12.00Q77.53 11.70 77.37 11.45Q77.21 11.21 77.11 11.07L77.11 11.07Q76.87 10.73 76.59 10.59Q76.30 10.45 76.02 10.45L76.02 10.45Q75.80 10.45 75.58 10.52Q75.36 10.59 75.16 10.72L75.16 10.72Q75.43 10.46 75.72 10.20Q76.01 9.93 76.32 9.72Q76.63 9.52 76.96 9.38Q77.29 9.25 77.64 9.25L77.64 9.25Q77.85 9.25 78.05 9.32Q78.24 9.39 78.41 9.56L78.41 9.56Q78.50 9.66 78.66 9.87Q78.81 10.08 79.00 10.36Q79.19 10.64 79.42 10.98Q79.64 11.32 79.88 11.68L79.88 11.68Q80.28 11.20 80.73 10.76Q81.18 10.32 81.66 9.98Q82.13 9.64 82.61 9.44Q83.10 9.24 83.58 9.24L83.58 9.24Q83.77 9.24 83.95 9.27Q84.14 9.30 84.35 9.36L84.35 9.36Q84.33 9.37 84.21 9.43Q84.10 9.48 83.90 9.62Q83.70 9.75 83.42 9.99Q83.15 10.22 82.79 10.58L82.79 10.58Q82.55 10.41 82.35 10.35Q82.15 10.29 82.00 10.29L82.00 10.29Q81.86 10.29 81.67 10.43Q81.48 10.57 81.25 10.82Q81.02 11.07 80.75 11.42Q80.48 11.76 80.19 12.17L80.19 12.17Q80.42 12.54 80.64 12.90Q80.87 13.26 81.07 13.58Q81.27 13.89 81.43 14.14Q81.60 14.40 81.72 14.55L81.72 14.55Q82.03 15.03 82.40 15.30Q82.78 15.57 83.23 15.57L83.23 15.57Q83.69 15.57 84.25 15.24Z"></path></g><defs data-v-fde0c5aa=""><linearGradient data-v-fde0c5aa="" gradientTransform="rotate(25)" id="d26dc112-c7b6-4152-ba5c-d891eae95e99" x1="0%" y1="0%" x2="100%" y2="0%"><stop data-v-fde0c5aa="" offset="0%" stop-color="#041804" stop-opacity="1"></stop><stop data-v-fde0c5aa="" offset="100%" stop-opacity="1"></stop></linearGradient></defs><g data-v-fde0c5aa="" id="cb1017df-b731-4b31-805b-889ca0d328cb" stroke="none" fill="url(#d26dc112-c7b6-4152-ba5c-d891eae95e99)" transform="matrix(0.20715408371830557,0,0,0.20715408371830557,96.96409292887476,62.59217931262134)"><path d="M241.4 58.8c3.3 0 6-2.7 6-6V17c0-3.3-2.7-6-6-6s-6 2.7-6 6v35.8c0 3.3 2.7 6 6 6zM366 187.7c0 3.3 2.7 6 6 6h35.8c3.3 0 6-2.7 6-6s-2.7-6-6-6H372c-3.3 0-6 2.7-6 6zM102.2 181.7H66.4c-3.3 0-6 2.7-6 6s2.7 6 6 6h35.8c3.3 0 6-2.7 6-6s-2.7-6-6-6zM335.1 95.7c1.6 0 3.1-.6 4.2-1.8l28-28c2.3-2.4 2.3-6.2-.1-8.5-2.3-2.3-6-2.3-8.4 0l-28 28c-2.3 2.3-2.3 6.1 0 8.5 1.2 1.2 2.7 1.8 4.3 1.8zM106.9 66l28 28c2.3 2.4 6.1 2.4 8.5.1 2.4-2.3 2.4-6.1.1-8.5l-.1-.1-28-28c-2.3-2.4-6.1-2.4-8.5-.1-2.4 2.4-2.4 6.2 0 8.6z"></path><circle cx="275.3" cy="402.7" r="6.1"></circle><circle cx="356.6" cy="324.5" r="6.1"></circle><path d="M190.7 403.8v1.7c0 6.6 5.3 11.9 11.9 11.9h34.8c-.7-4.5-1.2-9.1-1.4-13.6h-45.3zM397.9 370.5c0-3.3-2.7-6.1-6.1-6.1-3.3 0-6.1 2.7-6.1 6.1 0 3.3 2.7 6.1 6.1 6.1 3.4 0 6.1-2.8 6.1-6.1zM190.7 366.2h14.6c3.3 0 6 2.7 6 6s-2.7 6-6 6h-14.6v13.6h45.5c.3-4.6.9-9.1 1.7-13.6h-14.1c-3.3 0-6-2.7-6-6s2.7-6 6-6h17c1.3-4.4 2.9-8.6 4.7-12.8h-54.9v12.8zM299.2 297.2c3.8-5.6 8.3-10.8 13.2-15.4 44.6-41.6 47.1-111.5 5.5-156.1-41.6-44.6-111.5-47.1-156.1-5.5-44.6 41.6-47.1 111.5-5.5 156.1 2 2.1 4 4.1 6.1 6.1 16.6 15.3 26.6 36.5 28.1 59h61.2c11.3-19 27.7-34.3 47.5-44.2z"></path><path d="M431.5 338.4c-19.2-25.8-49.5-41.1-81.7-41.1-56.2 0-101.8 45.5-101.8 101.8 0 32.4 15.4 62.9 41.6 82.1v-32.3l-16.5-6.6c-2.3-.9-3.8-3.1-3.8-5.6v-17.1c-9.4-3.3-14.3-13.6-11-23 3.3-9.4 13.6-14.3 23-11 9.4 3.3 14.3 13.6 11 23-1.8 5.2-5.9 9.2-11 11v13l16.5 6.6c2.3.9 3.8 3.1 3.8 5.6v44c5.8 3.1 11.8 5.7 18.1 7.6V411l-16.5-16.5c-1.1-1.1-1.8-2.6-1.8-4.2v-11.9c-9.4-3.3-14.3-13.6-11-23 3.3-9.4 13.6-14.3 23-11 9.4 3.3 14.3 13.6 11 23-1.8 5.2-5.9 9.2-11 11v9.4l16.5 16.5c1.1 1.1 1.8 2.7 1.8 4.2v90.9c1.9.3 3.8.6 5.8.9v-66.7c0-1.6.6-3.1 1.8-4.2l11.4-11.4v-76.5c-9.4-3.3-14.3-13.6-11-23 3.3-9.4 13.6-14.3 23-11 9.4 3.3 14.3 13.6 11 23-1.8 5.2-5.9 9.2-11 11v79c0 1.6-.6 3.1-1.8 4.2l-11.4 11.4V501h.3c4.8 0 9.6-.3 14.4-1v-51.1c0-1.3.4-2.5 1.2-3.5l20.5-28.1v-29.7c-9.4-3.3-14.3-13.6-11-23 3.3-9.4 13.6-14.3 23-11 9.4 3.3 14.3 13.6 11 23-1.8 5.2-5.9 9.2-11 11v31.6c0 1.3-.4 2.5-1.2 3.5l-20.5 28.1v46.7c7.8-2.1 15.3-5.1 22.3-9v-22.8c0-1.6.7-3.2 1.9-4.4l13.8-13.1v-9c-9.4-3.3-14.3-13.6-11-23 3.3-9.4 13.6-14.3 23-11 9.4 3.3 14.3 13.6 11 23-1.8 5.2-5.9 9.2-11 11v11.5c0 1.6-.7 3.2-1.9 4.4l-13.8 13.1v12.5c45.2-33.4 54.6-97.2 21-142.3z"></path><circle cx="420.2" cy="422.3" r="6.1"></circle><path d="M313.4 361.3c0-3.3-2.7-6.1-6.1-6.1-3.3 0-6.1 2.7-6.1 6.1 0 3.3 2.7 6.1 6.1 6.1 3.4 0 6.1-2.7 6.1-6.1z"></path></g><!----></svg>